<svg id="headerContent_globalMenu" data-name="headerContent globalMenu" xmlns="http://www.w3.org/2000/svg" width="46.691" height="48" viewBox="0 0 46.691 48">
  <rect id="長方形_236" data-name="長方形 236" width="46.691" height="48" fill="none"/>
  <g id="グループ_41" data-name="グループ 41" transform="translate(12.714 15.88)">
    <path id="長方形_237" data-name="長方形 237" d="M412.474,85.5h19.285a1.015,1.015,0,0,1,1.015,1.015h0a1.015,1.015,0,0,1-1.015,1.015H412.474V85.5Z" transform="translate(-412.474 -85.5)" fill="#fff"/>
    <path id="長方形_237-2" data-name="長方形 237" d="M412.474,92.5h19.285a1.015,1.015,0,0,1,1.015,1.015h0a1.015,1.015,0,0,1-1.015,1.015H412.474V92.5Z" transform="translate(-412.474 -85.395)" fill="#fff"/>
    <path id="長方形_239" data-name="長方形 239" d="M412.474,99.5h19.285a1.015,1.015,0,0,1,1.015,1.015h0a1.015,1.015,0,0,1-1.015,1.015H412.474V99.5Z" transform="translate(-412.474 -85.29)" fill="#fff"/>
  </g>
</svg>
