<?xml version="1.0" standalone="no"?><!DOCTYPE svg PUBLIC "-//W3C//DTD SVG 1.1//EN" "http://www.w3.org/Graphics/SVG/1.1/DTD/svg11.dtd"><svg class="icon" width="200px" height="200.00px" viewBox="0 0 1024 1024" version="1.1" xmlns="http://www.w3.org/2000/svg"><path d="M400.936 267.66v133.276H267.66V267.66h133.276m66.639-66.638H201.022v266.553h266.553V201.022z m-66.639 422.042V756.34H267.66V623.064h133.276m66.639-66.639H201.022v266.553h266.553V556.425zM756.34 267.66v133.276H623.064V267.66H756.34m66.638-66.638H556.425v266.553h266.553V201.022zM556.425 556.425h66.639v66.639h-66.639v-66.639z m66.639 66.639h66.638v66.638h-66.638v-66.638z m66.638-66.639h66.638v66.639h-66.638v-66.639zM556.425 689.702h66.639v66.638h-66.639v-66.638z m66.639 66.638h66.638v66.638h-66.638V756.34z m66.638-66.638h66.638v66.638h-66.638v-66.638z m66.638-66.638h66.638v66.638H756.34v-66.638z m0 133.276h66.638v66.638H756.34V756.34z m199.915-466.467h-88.851V156.596H734.127v-88.85h222.128v222.127z m0 666.382V734.127h-88.851v133.277H734.127v88.85h222.128z m-888.51 0h222.128v-88.851H156.596V734.127h-88.85v222.128z m0-888.51v222.128h88.851V156.596h133.277v-88.85H67.745z" fill="#ffffff" /></svg>