<?xml version="1.0" encoding="utf-8"?>
<!-- Generator: Adobe Illustrator 26.3.1, SVG Export Plug-In . SVG Version: 6.00 Build 0)  -->
<svg version="1.1" id="_イヤー_1" xmlns="http://www.w3.org/2000/svg" xmlns:xlink="http://www.w3.org/1999/xlink" x="0px"
	 y="0px" viewBox="0 0 24 24" style="enable-background:new 0 0 24 24;" xml:space="preserve">
<style type="text/css">
	.st0{fill:#FFFFFF;}
	.st1{fill:#0017C1;}
</style>
<g>
	<circle class="st0" cx="12" cy="12" r="11.5"/>
	<g>
		<path class="st1" d="M13.5,23.9c-7.8,1-14.4-5.7-13.4-13.5c0.7-5.3,5-9.7,10.3-10.3c7.8-1,14.5,5.6,13.5,13.5
			C23.2,18.9,18.9,23.2,13.5,23.9z M13.8,1.1C6.3-0.1-0.1,6.3,1.1,13.8c0.8,4.6,4.4,8.2,9,9c7.5,1.2,14-5.2,12.7-12.7
			C22,5.6,18.4,1.9,13.8,1.1z"/>
	</g>
	<path class="st1" d="M7.5,8.5c0.2-1.2,0.7-2.1,1.6-2.8c0.8-0.6,1.7-0.8,2.9-0.8c1.4,0,2.5,0.4,3.3,1.1c0.7,0.6,1,1.5,1,2.5
		c0,0.7-0.2,1.3-0.5,1.8s-0.8,1-1.5,1.6S13.2,13,13,13.5c-0.2,0.4-0.2,0.9-0.2,1.7h-1.9v-0.4c0-0.9,0.1-1.6,0.4-2.1
		c0.2-0.5,0.6-1,1.2-1.5c0.6-0.6,1-1.1,1.2-1.5C13.9,9.4,14,9,14,8.6c0-0.6-0.2-1-0.6-1.3C13,6.8,12.6,6.7,12,6.7
		c-0.7,0-1.2,0.2-1.6,0.7c-0.3,0.4-0.5,1-0.6,1.6L7.5,8.5z M13.1,16.7v2.4h-2.6v-2.4H13.1z"/>
</g>
</svg>
