<?xml version="1.0" encoding="utf-8"?>
<!-- Generator: Adobe Illustrator 26.3.1, SVG Export Plug-In . SVG Version: 6.00 Build 0)  -->
<svg version="1.1" id="_イヤー_1" xmlns="http://www.w3.org/2000/svg" xmlns:xlink="http://www.w3.org/1999/xlink" x="0px"
	 y="0px" viewBox="0 0 24 24" style="enable-background:new 0 0 24 24;" xml:space="preserve">
<style type="text/css">
	.st0{fill:#0017C1;}
	.st1{fill:none;}
</style>
<g>
	<g>
		<path class="st0" d="M19.6,5.8L5.8,19.6c-0.4,0.4-1,0.4-1.4,0h0c-0.4-0.4-0.4-1,0-1.4L18.2,4.4c0.4-0.4,1-0.4,1.4,0l0,0
			C20,4.8,20,5.5,19.6,5.8z"/>
		<path class="st0" d="M5.8,4.4l13.7,13.7c0.4,0.4,0.4,1,0,1.4h0c-0.4,0.4-1,0.4-1.4,0L4.4,5.8C4,5.5,4,4.8,4.4,4.4l0,0
			C4.8,4,5.5,4,5.8,4.4z"/>
	</g>
	<rect class="st1" width="24" height="24"/>
</g>
</svg>
